<svg xmlns="http://www.w3.org/2000/svg" width="1005px" height="276px" viewBox="0 0 1005 276"><g fill="none" fill-rule="evenodd"><path fill="#FFF" fill-rule="nonzero" d="M391.7 120.4c-2.9-11-10-19.2-24-19.2-20.7 0-29.3 18.2-29.3 36.7 0 18.5 8.6 36.8 29.3 36.8 15 0 23.2-11.3 24.5-25.3h16.5c-1.4 23-17.7 39-41 39-28.9 0-46.2-23-46.2-50.5s17.2-50.5 46.1-50.5c21.8.1 38.9 12.1 41 33h-17zm27 30.7c0-21.3 12.8-36.7 35.2-36.7 22.4 0 35.2 15.4 35.2 36.7 0 21.3-12.8 36.9-35.2 36.9-22.4 0-35.2-15.4-35.2-36.9zm55 0c0-12-6-24.5-19.8-24.5S434 139 434 151s6 24.7 19.8 24.7 19.8-12.5 19.8-24.7zm28.7-61.4h15.3v14.6h-15.4V89.7zm0 26.6h15.3V186h-15.4v-69.8zm32.1 0H549v10.3l.2.2a25 25 0 0 1 21.8-12.4c15 0 24.7 8 24.7 23.7v48h-15.4v-43.9c-.3-11-4.6-15.6-13.6-15.6-10.3 0-17 8-17 18.3v41.2h-15.3v-69.8zM698.2 186h-10.8l-2.5-11.3a34.7 34.7 0 0 1-29 13.7c-28.9 0-46.2-23-46.2-50.5s17.3-50.5 46.1-50.5c21 0 38.8 11.2 41.4 33h-16.5c-1.6-12.8-12.7-19.2-24.9-19.2-20.6 0-29.3 18.2-29.3 36.7 0 18.5 8.7 36.7 29.4 36.7 17.2.3 26.7-10.1 27-26.5h-25.7v-12.8h41v50.8zm28.3-30.8c0 10.9 5.9 20.6 18.7 20.6 9 0 14.3-3.9 17-11.6h14.6c-3.4 15.3-16.3 23.8-31.6 23.8-21.9 0-34.1-15.3-34.1-36.8 0-19.8 13-36.8 33.7-36.8 22 0 35.5 19.8 33 40.8h-51.3zm35.9-10.2c-.6-9.7-7.2-18.5-17.6-18.5-10.7 0-18 8.1-18.3 18.5h35.9zm74.2-5.4c-1.2-8.5-7.4-13-16-13-8 0-19 4.1-19 25.3 0 11.6 5 24 18.4 24 9 0 15.1-6 16.6-16H852c-2.8 18-14 28-32 28-21.9 0-33.9-15.5-33.9-36 0-21 11.5-37.5 34.4-37.5 16.2 0 30 8.1 31.5 25.2h-15.4z"/><polygon fill="#FFF" fill-rule="nonzero" points="865 89.7 880.4 89.7 880.4 144.5 908.2 116.3 927.1 116.3 900.4 141.9 929.7 186.1 910.9 186.1 889.5 152.2 880.4 161.1 880.4 186.1 865 186.1"/><path fill="#FFF" fill-rule="nonzero" d="M933.8 151.1c0-21.3 12.8-36.7 35.2-36.7 22.5 0 35.3 15.4 35.3 36.7 0 21.3-12.8 36.9-35.3 36.9-22.4 0-35.2-15.4-35.2-36.9zm55 0c0-12-6-24.5-19.8-24.5-13.7 0-19.8 12.5-19.8 24.5s6 24.7 19.8 24.7 19.9-12.5 19.9-24.7z"/><path fill="#8DC63F" fill-rule="nonzero" d="M276 137.4a138 138 0 1 1-276 1.2 138 138 0 0 1 276-1.2z"/><path fill="#F9E988" fill-rule="nonzero" d="M265.7 137.4a127.6 127.6 0 1 1-255.3 1.2 127.6 127.6 0 0 1 255.3-1.2z"/><path fill="#FFF" fill-rule="nonzero" d="M140.3 18.7a74.7 74.7 0 0 1 48 7.9c7.3 4 13.6 9.3 19.8 14.4 6.3 5.1 12.5 10.3 18.5 16a108 108 0 0 1 26.7 41.2 102 102 0 0 1 4.5 48.6h-.8A224 224 0 0 0 235.6 80c-3.8-7-8-13.6-12.5-20a72.3 72.3 0 0 0-16.6-16.8 97 97 0 0 0-21.1-10.4c-7.3-2.9-14.4-5.8-22-8-7.4-2.1-15-3.7-23-5.3v-.8z"/><path fill="#8BC53F" fill-rule="nonzero" d="M202.7 92.4c-9.2-2.7-18.8-6.5-28.5-10.3-.6-2.5-2.8-5.5-7.1-9.2-6.4-5.5-18.3-5.4-28.6-3a71.4 71.4 0 0 0-33.4-1c-88.3 24.4-38.2 83.7-70.6 143.3C39 222 88.8 279 160.7 263.7c0 0-24.6-59 30.9-87.4 45-23.1 77.5-65.8 11.1-84z"/><path fill="#FFF" fill-rule="nonzero" d="M213.6 131.2a5.4 5.4 0 1 1-10.7 0 5.4 5.4 0 0 1 10.7 0z"/><path fill="#009345" fill-rule="nonzero" d="M138.5 70c6.4.4 29.7 8 35.7 12-5-14.5-21.9-16.4-35.7-12z"/><path fill="#FFF" fill-rule="nonzero" d="M144.6 106.6a24.7 24.7 0 1 1-49.4 0 24.7 24.7 0 0 1 49.4 0z"/><path fill="#58595B" fill-rule="nonzero" d="M137.3 106.8a17.4 17.4 0 1 1-34.7 0 17.4 17.4 0 0 1 34.7 0z"/><path fill="#8BC53F" fill-rule="nonzero" d="M233.6 142a122.7 122.7 0 0 1-75 24.9c-15 0-18.1-16-28.1-8.2A71 71 0 0 1 92.8 171a47 47 0 0 1-44.3-39.9c-2.6 30.8-4 53.5-15.5 79.4 23 36.8 77.9 65.3 127.7 53-5.4-37.3 27.3-74 45.6-92.6 7-7.1 20.3-18.7 27.3-29z"/><path fill="#58595B" fill-rule="nonzero" d="M232.8 143a89.5 89.5 0 0 1-21 13.6c-7.7 3.6-15.6 6.5-23.8 8.6a74.4 74.4 0 0 1-25.3 2.9 34.6 34.6 0 0 1-23.1-10.2l.3-.3a44 44 0 0 0 23 6.4 108.6 108.6 0 0 0 48-9.3 87.9 87.9 0 0 0 21.7-12l.3.3z"/></g></svg>