<svg width="1234" height="400" viewBox="0 0 1234 400" fill="none" xmlns="http://www.w3.org/2000/svg">
<path fill-rule="evenodd" clip-rule="evenodd" d="M201.064 53.071L74.8738 126.004V271.869L201.064 344.801L327.254 271.869V126.004L201.064 53.071ZM206.364 16.3151C203.084 14.4197 199.044 14.4197 195.764 16.3151L45.7255 103.031C42.446 104.927 40.4258 108.429 40.4258 112.22V285.652C40.4258 289.443 42.446 292.946 45.7255 294.841L195.764 381.557C199.044 383.453 203.084 383.453 206.364 381.557L356.403 294.841C359.682 292.946 361.702 289.443 361.702 285.652V112.22C361.702 108.429 359.682 104.927 356.403 103.031L206.364 16.3151Z" fill="#FF9211"/>
<path d="M201.064 105.904L120.58 152.42V245.452L200.534 291.662C200.862 291.852 201.064 292.202 201.064 292.581L201.064 308.509C201.064 309.326 200.181 309.837 199.474 309.428L108.656 256.939C106.196 255.517 104.681 252.89 104.681 250.047V147.825C104.681 144.982 106.196 142.355 108.656 140.934L197.089 89.823C199.549 88.4014 202.579 88.4014 205.039 89.823L296.22 142.331C296.921 142.735 296.927 143.745 296.232 144.158C290.851 147.353 288.095 148.774 282.075 152.126C281.749 152.308 281.35 152.306 281.027 152.119L201.064 105.904Z" fill="#FF9211"/>
<path d="M214.313 200.9C214.313 200.508 214.529 200.147 214.875 199.963L294.901 157.324C295.607 156.948 296.458 157.46 296.458 158.261V261.988C296.458 262.367 296.257 262.716 295.931 262.906L215.905 309.421C215.199 309.832 214.313 309.321 214.313 308.504V200.9Z" fill="#FF9211"/>
<path d="M519.686 291.667C501.369 291.667 485.755 288.482 472.846 282.113C460.111 275.571 450.342 265.501 443.538 251.901C436.735 238.302 433.333 221.001 433.333 200C433.333 169.014 440.922 146.033 456.099 131.056C471.451 115.908 492.734 108.333 519.948 108.333C534.951 108.333 548.383 110.829 560.246 115.822C572.283 120.814 581.703 128.302 588.507 138.286C595.485 148.099 598.974 160.665 598.974 175.986H569.143C569.143 166.518 567.137 158.599 563.124 152.23C559.112 145.861 553.355 141.041 545.854 137.77C538.527 134.499 529.979 132.864 520.21 132.864C507.998 132.864 497.618 135.274 489.07 140.094C480.696 144.742 474.329 151.8 469.968 161.268C465.781 170.735 463.687 182.786 463.687 197.418V203.098C463.687 217.731 465.781 229.781 469.968 239.249C474.329 248.717 480.696 255.775 489.07 260.422C497.444 264.898 507.824 267.136 520.21 267.136C530.328 267.136 539.137 265.587 546.639 262.488C554.14 259.217 559.897 254.397 563.909 248.028C568.096 241.659 570.19 233.74 570.19 224.272H598.974C598.974 239.593 595.485 252.246 588.507 262.23C581.703 272.214 572.283 279.616 560.246 284.437C548.383 289.257 534.863 291.667 519.686 291.667Z" fill="#FBFCFC"/>
<path d="M712.963 291.667C694.471 291.667 678.421 288.31 664.814 281.596C651.382 274.883 641.002 264.726 633.675 251.127C626.522 237.527 622.946 220.485 622.946 200C622.946 179.343 626.522 162.3 633.675 148.873C641.002 135.274 651.382 125.117 664.814 118.404C678.421 111.69 694.471 108.333 712.963 108.333C731.803 108.333 747.94 111.69 761.373 118.404C774.806 125.117 785.098 135.274 792.251 148.873C799.578 162.3 803.241 179.343 803.241 200C803.241 220.485 799.578 237.527 792.251 251.127C785.098 264.726 774.806 274.883 761.373 281.596C747.94 288.31 731.803 291.667 712.963 291.667ZM712.963 267.136C722.558 267.136 731.018 265.845 738.345 263.263C745.847 260.681 752.127 256.721 757.186 251.385C762.42 246.048 766.345 239.335 768.961 231.244C771.753 223.153 773.148 213.771 773.148 203.098V197.418C773.148 186.401 771.753 176.847 768.961 168.756C766.345 160.665 762.42 153.951 757.186 148.615C752.127 143.278 745.847 139.319 738.345 136.737C731.018 134.155 722.558 132.864 712.963 132.864C703.542 132.864 695.082 134.155 687.58 136.737C680.253 139.319 673.973 143.278 668.739 148.615C663.68 153.951 659.842 160.665 657.226 168.756C654.609 176.847 653.301 186.401 653.301 197.418V203.098C653.301 213.771 654.609 223.153 657.226 231.244C659.842 239.335 663.68 246.048 668.739 251.385C673.973 256.721 680.253 260.681 687.58 263.263C695.082 265.845 703.542 267.136 712.963 267.136Z" fill="#FBFCFC"/>
<path d="M837.038 288.568V111.432H931.503C944.238 111.432 954.792 113.67 963.166 118.145C971.54 122.621 977.82 128.904 982.007 136.995C986.194 144.914 988.287 154.21 988.287 164.883C988.287 176.76 985.583 187.089 980.175 195.868C974.767 204.648 967.091 211.103 957.148 215.235L994.567 288.568H962.643L928.625 220.141H866.346V288.568H837.038ZM866.346 195.868H929.148C938.569 195.868 945.808 193.114 950.867 187.606C956.101 182.097 958.718 174.437 958.718 164.624C958.718 158.599 957.584 153.521 955.316 149.39C953.048 145.086 949.733 141.815 945.372 139.577C941.011 137.34 935.603 136.221 929.148 136.221H866.346V195.868Z" fill="#FBFCFC"/>
<path d="M1025.88 288.568V111.432H1165.1V136.221H1055.19V185.54H1153.58V210.329H1055.19V263.779H1166.67V288.568H1025.88Z" fill="#FBFCFC"/>
</svg>
