<svg width="173" height="30" viewBox="0 0 173 30" fill="none" xmlns="http://www.w3.org/2000/svg">
<path d="M34.4783 5.72737C34.4783 5.67899 34.4783 5.64674 34.4621 5.59836C34.4621 5.58223 34.4621 5.54997 34.446 5.53385V5.51773C34.4298 5.46935 34.4136 5.4371 34.3974 5.40484C34.3974 5.38872 34.3813 5.37259 34.3813 5.35647C34.3489 5.29196 34.3166 5.24358 34.2841 5.1952C34.2841 5.17908 34.268 5.17908 34.268 5.16296C34.2356 5.11458 34.2033 5.08232 34.1548 5.05008C34.1548 5.05008 34.1548 5.03394 34.1386 5.03394L28.589 0.534819C28.5728 0.534819 28.5728 0.518693 28.5566 0.518693C28.5081 0.486441 28.4596 0.45419 28.3949 0.421938C28.3788 0.421938 28.3625 0.405812 28.3463 0.405812C28.2816 0.37356 28.2008 0.357434 28.136 0.341309C28.1198 0.341309 28.1036 0.341309 28.1036 0.341309C28.0389 0.341309 27.9742 0.341309 27.9256 0.341309C27.9095 0.341309 27.8771 0.341309 27.8609 0.357434C27.8448 0.357434 27.8286 0.357434 27.8124 0.357434L0.760432 7.19481C0.711895 7.21094 0.663356 7.22707 0.614818 7.2432H0.598639C0.533921 7.27545 0.469203 7.32383 0.404485 7.3722C0.388306 7.38833 0.372126 7.40445 0.355947 7.40445C0.307409 7.45284 0.275051 7.48509 0.242691 7.5496C0.226512 7.56571 0.226512 7.56571 0.210332 7.58184C0.177974 7.64634 0.145614 7.71086 0.113256 7.77535C0.113256 7.79148 0.0970762 7.8076 0.0970762 7.82373C0.0808971 7.88824 0.0647177 7.93661 0.0647177 8.00112C0.0647177 8.01724 0.0647177 8.01724 0.0647177 8.03337L0 13.7903C0 13.8065 0 13.8226 0 13.8387C0 13.8709 0 13.9032 0.0161795 13.9515C0.0161795 13.9838 0.0323588 13.9999 0.0323588 14.0321C0.0485383 14.0645 0.0485383 14.0967 0.0647177 14.129C0.0808971 14.1612 0.0808971 14.1774 0.0970762 14.2096C0.113256 14.2419 0.129436 14.2741 0.145614 14.2902C0.161795 14.3225 0.177974 14.3386 0.194152 14.3547C0.210332 14.387 0.242691 14.4031 0.25887 14.4353C0.275051 14.4514 0.291229 14.4838 0.323588 14.4999L0.388306 14.5482C1.37525 15.3707 3.73744 17.7089 3.67272 19.5795C3.67272 21.4662 3.59183 24.5141 3.59183 24.5463C3.59183 24.8204 3.70509 25.0785 3.91542 25.2558L8.89868 29.4486C8.89868 29.4486 8.91487 29.4486 8.91487 29.4647C8.94725 29.4808 8.96336 29.497 8.99574 29.5131C9.01193 29.5292 9.02812 29.5292 9.04431 29.5453C9.07661 29.5614 9.10899 29.5776 9.12518 29.5937C9.14137 29.5937 9.15756 29.6098 9.17375 29.6098C9.20605 29.6259 9.25462 29.6259 9.287 29.642C9.30319 29.642 9.30319 29.642 9.3193 29.642C9.36787 29.6583 9.41644 29.6583 9.46493 29.6583C9.52969 29.6583 9.61056 29.642 9.67532 29.6259H9.69143L15.1601 28.2069C15.5484 28.1101 15.8235 27.7554 15.8396 27.3522L15.9367 19.1764C15.953 18.9506 16.1308 16.951 17.765 15.7577C19.0593 15.9834 19.0432 17.1606 19.0108 17.5155C19.0108 17.5477 19.0108 17.5799 19.0108 17.6122L18.9785 20.6922C18.9785 20.9663 19.0918 21.2244 19.302 21.3856L24.2529 25.5138C24.2691 25.53 24.2853 25.53 24.2853 25.5461C24.3014 25.5623 24.3176 25.5784 24.3501 25.5945C24.3824 25.6107 24.3986 25.6268 24.4309 25.6429C24.4471 25.659 24.4794 25.659 24.4956 25.6751C24.528 25.6913 24.5603 25.6913 24.5927 25.7074C24.6089 25.7074 24.6413 25.7235 24.6574 25.7235C24.7059 25.7396 24.7383 25.7396 24.7868 25.7396C24.8031 25.7396 24.8031 25.7396 24.8193 25.7396C24.8193 25.7396 24.8193 25.7396 24.8354 25.7396C24.9001 25.7396 24.9648 25.7235 25.0458 25.7074H25.0619L30.4981 24.3528C30.9027 24.256 31.1778 23.9013 31.1778 23.4982L31.2748 15.677C31.2748 15.6609 31.2748 15.6609 31.2748 15.6447C31.2748 15.4191 31.3718 13.4516 33.7017 12.355C33.7664 12.3389 33.8311 12.3228 33.8959 12.2906C34.2033 12.1455 34.3974 11.839 34.4136 11.4843L34.4783 5.72737ZM6.763 11.5811L2.96082 8.50101L27.1167 2.40543L27.0682 6.46915L6.763 11.5811ZM1.82827 13.3872L1.86063 9.92008L5.63044 12.9679L5.59807 16.435L1.82827 13.3872ZM28.8964 3.11497L31.5983 5.30809L28.8641 6.0015L28.8964 3.11497ZM32.6662 6.90456L32.634 9.66212L29.9805 7.58184L32.6662 6.90456ZM5.40393 18.612L5.90549 19.0151C5.90549 19.0151 5.92167 19.0151 5.92167 19.0312C5.93784 19.0474 5.95402 19.0635 5.98639 19.0635C6.01874 19.0796 6.03492 19.0957 6.06728 19.112C6.08345 19.1281 6.09964 19.1281 6.132 19.1442C6.16436 19.1603 6.19672 19.1764 6.22907 19.1764C6.24525 19.1764 6.24525 19.1925 6.26143 19.1925C7.08658 19.4021 8.59123 20.4181 8.67218 21.7243L8.62361 26.8523L5.45246 24.1755C5.46865 23.2562 5.53335 21.0792 5.51718 19.628C5.51718 19.2893 5.46865 18.9506 5.40393 18.612ZM20.1434 15.161C20.0949 15.0965 20.0302 15.032 19.9654 14.9675C19.9654 14.9675 19.9654 14.9675 19.9815 14.9675C21.0494 14.8224 21.8908 15.0159 22.5379 15.5641C23.8322 16.6446 24.0102 18.7571 24.0264 18.9828L23.9779 22.966L20.8067 20.3213L20.8391 17.7089C20.8714 17.4025 20.92 16.1609 20.1434 15.161ZM29.4789 15.6125C29.4789 15.6286 29.4789 15.6286 29.4789 15.6447L29.398 22.8047L25.7738 23.7077L25.8223 18.9667C25.8223 18.9506 25.8223 18.9344 25.8223 18.9183C25.8223 18.7894 25.6767 15.8384 23.7029 14.1935C22.6512 13.3227 21.3244 12.9679 19.7389 13.1775C15.5484 13.7259 14.2541 17.3057 14.1569 19.112C14.1569 19.1281 14.1569 19.1442 14.1569 19.1442L14.0761 26.6588L10.4034 27.6102L10.4682 21.7081C10.4682 21.692 10.4682 21.6759 10.4682 21.6598C10.3872 19.7247 8.76924 18.2895 7.394 17.6767L7.44253 13.2421L27.7639 8.13012L31.8735 11.3553C29.6569 12.9356 29.4789 15.1932 29.4789 15.6125Z" fill="#26BA9E"/>
<path d="M53.9536 14.6572C53.868 14.6572 53.7824 14.4859 53.7824 14.4003C53.7824 14.3147 53.868 14.1434 53.9536 14.0578C54.553 13.8009 54.9811 13.3728 55.3236 12.9446C55.6662 12.5165 55.7518 11.9171 55.7518 11.2321C55.7518 10.5471 55.5805 9.86208 55.3236 9.43395C55.0668 8.92019 54.6386 8.57768 54.0392 8.23517C53.5255 7.89267 52.8405 7.72141 52.0698 7.55016C51.2992 7.37891 50.4429 7.37891 49.501 7.37891C49.1585 7.37891 48.816 7.37891 48.4735 7.37891C48.131 7.37891 47.7029 7.37891 47.3604 7.46453C47.0178 7.46453 46.5897 7.55016 46.2472 7.55016C45.9903 7.55016 45.7334 7.63579 45.4766 7.63579V22.0211C45.9903 22.1067 46.6753 22.1923 47.3604 22.278C48.2166 22.3636 48.9873 22.3636 49.8435 22.3636C52.1555 22.3636 53.868 22.0211 54.9811 21.2504C56.0943 20.4798 56.608 19.4523 56.608 17.911C56.608 17.0547 56.4368 16.3697 56.0087 15.7703C55.4949 15.3422 54.8099 14.9141 53.9536 14.6572ZM47.5316 9.43395C47.5316 9.2627 47.6172 9.17707 47.7885 9.09144C48.0454 9.09144 48.3022 9.00581 48.6448 9.00581C48.9873 9.00581 49.3298 9.00581 49.7579 9.00581C50.7854 9.00581 51.6417 9.17707 52.3267 9.51958C53.0973 9.86208 53.4399 10.5471 53.4399 11.4034C53.4399 12.3453 53.0973 12.9446 52.3267 13.2872C51.6417 13.6297 50.7854 13.8009 49.6723 13.8009H47.7029C47.5316 13.8009 47.3604 13.6297 47.3604 13.4584V9.43395H47.5316ZM53.868 19.3667C53.6111 19.7092 53.2686 19.966 52.9261 20.2229C52.498 20.3942 52.0698 20.5654 51.5561 20.6511C51.0423 20.7367 50.5285 20.7367 49.9292 20.7367C49.5866 20.7367 49.3298 20.7367 48.9016 20.7367C48.5591 20.7367 48.2166 20.7367 47.8741 20.6511C47.7029 20.6511 47.6172 20.4798 47.6172 20.3086V15.5991C47.6172 15.4278 47.7885 15.2566 47.9597 15.2566H50.4429C51.6417 15.2566 52.5836 15.4278 53.2686 15.7703C54.0392 16.1985 54.3817 16.8835 54.3817 17.8254C54.2105 18.596 54.1249 19.0241 53.868 19.3667Z" fill="#303030"/>
<path d="M72.6194 12.6018C72.1913 12.0881 71.5919 11.7456 70.9925 11.4887C70.3075 11.2318 69.6225 11.0605 68.8518 11.0605C68.0812 11.0605 67.3962 11.2318 66.7112 11.4887C66.1118 11.7456 65.5124 12.1737 65.0842 12.6018C64.6561 13.1156 64.228 13.715 63.9711 14.4C63.7142 15.085 63.543 15.9413 63.543 16.7975C63.543 17.6538 63.7142 18.5101 63.9711 19.1951C64.228 19.8801 64.5705 20.4795 65.0842 20.9933C65.5124 21.507 66.1118 21.8495 66.7112 22.192C67.3105 22.4489 68.0812 22.6202 68.8518 22.6202C69.6225 22.6202 70.3931 22.4489 70.9925 22.192C71.6775 21.9351 72.1913 21.507 72.6194 20.9933C73.0475 20.4795 73.4757 19.8801 73.6469 19.1951C73.9038 18.5101 73.9894 17.6538 73.9894 16.7975C73.9894 15.9413 73.8182 15.085 73.5613 14.4C73.4757 13.715 73.0475 13.1156 72.6194 12.6018ZM71.1638 19.7945C70.65 20.5651 69.7937 20.9076 68.8518 20.9076C67.8243 20.9076 67.0537 20.4795 66.5399 19.7945C66.0261 19.0238 65.7693 18.0819 65.7693 16.8832C65.7693 15.6844 66.0261 14.6569 66.5399 13.9719C67.0537 13.2012 67.9099 12.8587 68.8518 12.8587C69.8793 12.8587 70.65 13.2012 71.1638 13.9719C71.6775 14.6569 71.9344 15.6844 71.9344 16.8832C71.9344 17.9963 71.6775 19.0238 71.1638 19.7945Z" fill="#303030"/>
<path d="M82.9853 20.7364C82.5572 20.822 82.0434 20.9076 81.5297 20.9076C80.2453 20.9076 79.2177 20.5651 78.704 19.7945C78.1046 19.1095 77.8477 18.0819 77.8477 16.8832C77.8477 15.5988 78.1902 14.5712 78.704 13.8862C79.3034 13.1156 80.1596 12.7731 81.3584 12.7731C81.7865 12.7731 82.3003 12.8587 82.6428 12.9443C82.8997 13.03 83.1566 13.1156 83.4134 13.2012L83.8416 11.5743C82.9853 11.2318 82.0434 11.0605 81.1015 11.0605C80.2453 11.0605 79.4746 11.2318 78.8752 11.4887C78.1902 11.7456 77.6765 12.1737 77.1627 12.6875C76.7346 13.2012 76.3064 13.8006 76.0495 14.4856C75.7927 15.1706 75.707 15.9413 75.707 16.7975C75.707 17.6538 75.7927 18.4245 76.0495 19.1095C76.3064 19.7945 76.6489 20.3939 77.0771 20.9076C77.5052 21.4214 78.1046 21.8495 78.7896 22.1064C79.4746 22.3633 80.3309 22.5345 81.2728 22.5345C81.8722 22.5345 82.4715 22.4489 83.0709 22.3633C83.4991 22.2777 83.8416 22.192 84.0985 22.1064L83.8416 20.4795C83.5847 20.6507 83.3278 20.6507 82.9853 20.7364Z" fill="#303030"/>
<path d="M106.702 8.57768C105.589 7.80704 103.876 7.37891 101.735 7.37891C101.05 7.37891 100.365 7.37891 99.5947 7.46453C98.9097 7.55016 98.3103 7.55016 97.7109 7.72141V22.278H99.8516V17.1404C99.8516 16.9691 100.023 16.7979 100.194 16.7979H101.564C102.677 16.7979 103.619 16.7122 104.475 16.541C105.332 16.3697 106.017 16.1128 106.616 15.6847C107.216 15.3422 107.644 14.8284 107.901 14.229C108.157 13.6297 108.329 12.859 108.329 12.0884C108.414 10.4615 107.815 9.34832 106.702 8.57768ZM104.818 14.4859C104.047 14.9141 102.934 15.0853 101.564 15.0853H100.194C100.023 15.0853 99.8516 14.9141 99.8516 14.7428V9.51958C99.8516 9.34832 99.9372 9.2627 100.108 9.17707C100.622 9.09144 101.222 9.09144 101.907 9.09144C102.42 9.09144 102.934 9.09144 103.448 9.17707C103.962 9.2627 104.39 9.43395 104.732 9.6052C105.16 9.86208 105.417 10.119 105.674 10.5471C105.931 10.9752 106.017 11.4034 106.017 12.0028C106.102 13.2872 105.674 14.0578 104.818 14.4859Z" fill="#303030"/>
<path d="M61.2332 20.3082C61.0619 20.1369 60.9763 19.8801 60.8907 19.6232C60.805 19.3663 60.805 19.1094 60.805 18.7669V7.5498L58.75 8.06356V19.195C58.75 19.7088 58.8356 20.2226 58.9213 20.6507C59.0069 21.0788 59.2638 21.4213 59.5206 21.6782C59.7775 21.9351 60.2057 22.192 60.6338 22.2776C61.0619 22.4489 61.5757 22.5345 62.2607 22.5345L62.4319 21.5926L62.5176 20.9076C62.2607 20.9076 62.0894 20.822 61.9182 20.7363C61.5757 20.6507 61.4044 20.4794 61.2332 20.3082Z" fill="#303030"/>
<path d="M93.9423 19.3663C93.5142 18.7669 93.0004 18.2532 92.5723 17.7394C92.0586 17.2256 91.6304 16.7975 91.2023 16.455C91.1167 16.3694 91.1167 16.2837 91.1167 16.1981C91.1167 16.1125 91.1167 16.0269 91.2023 15.9412C92.0585 15.085 92.8292 14.2287 93.6855 13.3724C94.3705 12.6874 94.9699 12.0024 95.5693 11.3174H93.2573C93.0004 11.5743 92.7436 11.8311 92.4867 12.1737C92.1442 12.5162 91.8017 12.9443 91.4592 13.3724C91.1167 13.8006 90.6885 14.2287 90.346 14.5712C90.0035 14.9993 89.5754 15.3418 89.2329 15.6843C89.1472 15.77 89.0616 15.77 88.976 15.77H88.8904C88.8047 15.6843 88.7191 15.5987 88.7191 15.5131V7.5498L86.6641 8.06356V22.3632H88.7191V17.3969C88.7191 17.3113 88.8047 17.14 88.8904 17.14C88.976 17.14 88.976 17.14 89.0616 17.14C89.1472 17.14 89.2329 17.14 89.2329 17.2256C89.661 17.5681 90.0891 17.9106 90.5173 18.3388C90.9454 18.7669 91.3735 19.195 91.716 19.7088C92.1442 20.2226 92.4867 20.6507 92.8292 21.1645C93.1717 21.5926 93.4286 22.0207 93.6855 22.4489H96.083C95.9118 22.1064 95.6549 21.6782 95.398 21.3357C94.7986 20.5651 94.3705 19.9657 93.9423 19.3663Z" fill="#303030"/>
<path d="M110.469 22.2776H112.609V7.5498L110.469 8.06356V22.2776Z" fill="#303030"/>
<path d="M130.306 13.2446V19.8926L125.914 13.2446H124.822V21.6206H125.914V14.9606L130.306 21.6206H131.398V13.2446H130.306ZM136.056 15.8606C137.184 15.8606 138.144 16.5686 138.132 17.8526H133.98C134.1 16.5686 134.988 15.8606 136.056 15.8606ZM139.128 19.5926H137.952C137.712 20.3006 137.088 20.8046 136.104 20.8046C134.988 20.8046 134.052 20.0726 133.968 18.7406H139.224C139.248 18.5126 139.26 18.3206 139.26 18.0806C139.26 16.2806 138.012 14.9366 136.104 14.9366C134.184 14.9366 132.852 16.2446 132.852 18.3206C132.852 20.4086 134.232 21.7286 136.104 21.7286C137.736 21.7286 138.792 20.7926 139.128 19.5926ZM140.941 19.8206C140.941 21.1406 141.601 21.6206 142.765 21.6206H143.749V20.6966H142.945C142.273 20.6966 142.033 20.4686 142.033 19.8206V15.9446H143.749V15.0446H142.033V13.3886H140.941V15.0446H140.089V15.9446H140.941V19.8206ZM146.356 21.6206H147.484L149.068 16.4006L150.652 21.6206H151.78L153.832 15.0446H152.752L151.264 20.5766L149.668 15.0446H148.552L146.92 20.5646L145.408 15.0446H144.292L146.356 21.6206ZM161.156 18.3206C161.156 16.2446 159.704 14.9366 157.832 14.9366C155.972 14.9366 154.508 16.2446 154.508 18.3206C154.508 20.4086 155.924 21.7286 157.784 21.7286C159.656 21.7286 161.156 20.4086 161.156 18.3206ZM155.624 18.3206C155.624 16.6646 156.668 15.8846 157.82 15.8846C158.948 15.8846 160.04 16.6646 160.04 18.3206C160.04 19.9886 158.924 20.7686 157.784 20.7686C156.644 20.7686 155.624 19.9886 155.624 18.3206ZM163.684 18.0446C163.684 16.5206 164.476 16.0526 165.52 16.0526H165.808V14.9246C164.764 14.9246 164.056 15.3806 163.684 16.1126V15.0446H162.592V21.6206H163.684V18.0446ZM167.069 21.6206H168.161V18.7166L170.741 21.6206H172.229L169.121 18.3206L172.217 15.0446H170.693L168.161 17.9606V12.7406H167.069V21.6206Z" fill="#303030"/>
</svg>
