<svg width="1756" height="575" viewBox="0 0 1756 575" fill="none" xmlns="http://www.w3.org/2000/svg">
<g clip-path="url(#clip0_263_19)">
<path d="M567.398 390.25C510.9 410.853 439.31 428.28 360.54 439.041C284.286 449.452 212.824 452.097 153.976 447.983C64.9974 441.85 4.7909 420.439 0.274037 387.533C-4.18775 354.975 46.9483 318.58 129.482 288.942C130.823 288.446 132.2 287.95 133.595 287.473C130.567 299.569 128.978 311.569 127.999 324L123.999 325.5C94.7858 337.693 79.0805 349.925 80.5127 360.41C81.8898 370.547 99.6451 377.763 128.968 381.748C178.782 388.542 261.977 386.137 355.068 373.43C447.04 360.869 527.003 341.166 573.42 321.481C601.66 309.508 617.487 297.609 616.055 287.179C614.586 276.418 594.793 268.981 562.33 265.143H561.632C557.589 253.979 552.677 243.149 546.943 232.751L548.596 232.88C632.856 239.802 689.353 260.901 693.65 292.724C698.13 324.878 648.242 360.796 567.398 390.25Z" fill="url(#paint0_linear_263_19)"/>
<path d="M540.977 520.278L549.606 574.982L497.919 555.113L450.823 537.025C399.367 563.095 339.861 568.391 284.611 551.818C229.361 535.246 182.592 498.071 153.977 447.983C212.733 452.097 284.341 449.452 360.541 439.04C439.31 428.28 510.901 410.853 567.398 390.25C560.688 417.656 548.85 443.545 532.512 466.548L540.977 520.278Z" fill="url(#paint1_linear_263_19)"/>
<path d="M249.18 339.587C264.989 339.587 277.805 326.77 277.805 310.959C277.805 295.148 264.989 282.331 249.18 282.331C233.371 282.331 220.555 295.148 220.555 310.959C220.555 326.77 233.371 339.587 249.18 339.587Z" fill="url(#paint2_linear_263_19)"/>
<path d="M365.793 341.239C381.602 341.239 394.418 328.422 394.418 312.611C394.418 296.801 381.602 283.983 365.793 283.983C349.984 283.983 337.168 296.801 337.168 312.611C337.168 328.422 349.984 341.239 365.793 341.239Z" fill="url(#paint3_linear_263_19)"/>
<path d="M130.422 168.058C135.819 155.479 143.837 144.196 153.94 134.962C164.044 125.729 176.001 118.757 189.013 114.512" stroke="url(#paint4_linear_263_19)" stroke-width="32" stroke-miterlimit="10" stroke-linecap="round"/>
<path d="M82.4961 150.906C90.8587 128.089 105.595 108.152 124.955 93.4649C144.315 78.7777 167.484 69.9576 191.709 68.0527" stroke="url(#paint5_linear_263_19)" stroke-width="32" stroke-miterlimit="10" stroke-linecap="round"/>
<path d="M30.4062 129.899C43.5922 98.3518 65.1188 70.9905 92.6759 50.7518C120.233 30.513 152.781 18.1607 186.826 15.0205" stroke="url(#paint6_linear_263_19)" stroke-width="32" stroke-miterlimit="10" stroke-linecap="round"/>
<path d="M134.576 286.638C133.805 291.43 133.089 296.388 132.447 301.475C131.529 308.82 130.825 315.89 130.335 322.684L107.035 333.28L81.5859 307.829C90.7666 303.495 100.737 299.216 111.258 295.103C119.263 291.981 127.048 289.172 134.576 286.638Z" fill="url(#paint7_linear_263_19)" fill-opacity="0.8"/>
<path d="M555.521 264.317C560.773 264.74 566.538 265.401 572.487 266.429C578.914 267.521 585.281 268.936 591.564 270.671L583.081 236.736C577.573 235.983 571.918 235.267 566.116 234.624C558.135 233.743 550.362 233.033 542.797 232.494L555.521 264.317Z" fill="url(#paint8_linear_263_19)" fill-opacity="0.6"/>
<path d="M568.242 287.637C549.409 300.089 528.118 308.343 505.814 311.84C499.926 281.38 485.518 253.216 464.262 230.62C431.91 196.226 385.621 176.78 338.065 180.673C285.001 185.025 238.768 217.729 213.778 263.839C204.046 281.732 197.75 301.288 195.215 321.499C193.571 334.915 193.571 348.481 195.215 361.897C183.216 362.754 171.171 362.754 159.172 361.897C148.493 361.147 137.872 359.73 127.37 357.655C127.058 352.459 126.856 346.197 126.985 339.09C126.985 337.75 127.131 331.525 127.719 324.4C128.64 311.949 130.6 299.597 133.576 287.472C156.693 194.078 236.399 122.462 331.676 114.401C419.443 106.964 504.125 154.799 546.943 232.75C552.569 243.202 557.476 254.024 561.632 265.143C564.257 272.51 566.464 280.021 568.242 287.637Z" fill="url(#paint9_linear_263_19)"/>
<path d="M152.672 446.661C157.348 453.627 162.293 460.697 167.508 467.87C171.768 473.722 176.009 479.378 180.232 484.838C239.998 516.5 317.806 514.082 384.998 502.5C443.583 492.394 500.998 467.87 555.518 425.47C557.684 420.99 559.851 416.05 561.871 410.615C564.454 403.698 566.583 396.619 568.242 389.424C506.898 410.614 443.767 426.224 379.617 436.066C304.553 447.58 228.482 451.132 152.672 446.661Z" fill="url(#paint10_linear_263_19)" fill-opacity="0.8"/>
</g>
<path d="M789.384 571.34H732V367.054H846.421V411.502L789.384 408.016V455.427H836.193V498.654L789.384 495.168V571.34Z" fill="white"/>
<path d="M918.404 571.34H862.407V458.564L852.005 452.115V432.418L889.279 423.18H903.322L908.349 464.665C913.088 436.195 928.286 421.96 953.944 421.96C956.834 421.96 959.839 422.483 962.959 423.529L957.065 485.581C954.638 483.374 949.321 482.27 941.115 482.27C929.326 482.27 921.756 485.407 918.404 491.682V571.34Z" fill="white"/>
<path d="M976.686 571.34V458.564L966.284 452.115V433.464L1003.56 423.18H1032.51V571.34H976.686ZM1001.82 407.144L973.392 378.384V372.283L1001.82 343.697H1008.41L1038.06 372.283V378.384L1008.41 407.144H1001.82Z" fill="white"/>
<path d="M1134.27 481.224C1134.27 466.466 1133.52 456.008 1132.01 449.849C1130.51 443.69 1127.74 440.611 1123.69 440.611C1120.23 440.611 1117.39 441.25 1115.2 442.528C1113 443.69 1111.38 445.608 1110.34 448.28C1109.3 450.837 1108.61 453.509 1108.26 456.298C1108.03 458.971 1107.92 462.399 1107.92 466.582V481.224H1134.27ZM1120.4 575C1107.45 575 1096.19 573.025 1086.59 569.074C1077.12 565.123 1069.6 559.603 1064.06 552.515C1058.62 545.426 1054.64 537.466 1052.09 528.635C1049.55 519.687 1048.28 509.752 1048.28 498.829C1048.28 472.799 1054.87 453.103 1068.04 439.739C1081.22 426.376 1099.65 419.694 1123.35 419.694C1146.12 419.694 1162.41 425.098 1172.24 435.905C1182.06 446.595 1186.97 463.851 1186.97 487.673V507.021H1107.74V510.333C1107.74 517.189 1108.44 522.825 1109.82 527.24C1111.33 531.656 1113.46 534.91 1116.24 537.001C1119.01 539.093 1121.84 540.488 1124.73 541.185C1127.62 541.882 1131.15 542.231 1135.31 542.231C1139.35 542.231 1143.69 541.708 1148.31 540.662C1153.05 539.616 1157.79 537.989 1162.53 535.781C1167.38 533.573 1171.43 530.959 1174.66 527.938L1184.89 545.542C1180.61 552.515 1174.32 558.383 1165.99 563.147C1157.79 567.795 1149.87 570.933 1142.24 572.56C1134.62 574.187 1127.33 575 1120.4 575Z" fill="white"/>
<path d="M1261.75 571.34H1205.75V458.564L1195.35 452.115V433.464L1232.62 423.18H1262.1V445.666L1264.18 443.051C1265.56 441.192 1267.59 438.984 1270.24 436.427C1273.02 433.871 1276.08 431.373 1279.43 428.932C1282.78 426.376 1286.77 424.226 1291.39 422.483C1296.13 420.624 1300.76 419.694 1305.26 419.694C1321.1 419.694 1332.25 424.052 1338.72 432.767C1345.31 441.482 1348.61 456.066 1348.61 476.518C1348.61 477.215 1348.61 478.261 1348.61 479.655C1348.49 481.05 1348.43 482.154 1348.43 482.967V571.34H1291.22V477.912C1291.57 466.989 1286.94 461.527 1277.35 461.527C1276.66 461.527 1275.96 461.586 1275.27 461.702C1274.69 461.818 1274.12 461.934 1273.54 462.05C1273.08 462.167 1272.5 462.399 1271.8 462.748C1271.23 462.98 1270.71 463.212 1270.24 463.445C1269.78 463.561 1269.26 463.851 1268.68 464.316C1268.11 464.665 1267.64 464.955 1267.3 465.188C1266.95 465.42 1266.43 465.827 1265.74 466.408C1265.16 466.873 1264.7 467.221 1264.35 467.454C1264.12 467.686 1263.66 468.093 1262.96 468.674C1262.38 469.139 1261.98 469.487 1261.75 469.72V571.34Z" fill="white"/>
<path d="M1467.22 571.34L1460.46 548.854C1459.54 550.481 1458.44 552.108 1457.17 553.735C1456.01 555.362 1454.11 557.453 1451.45 560.01C1448.79 562.45 1445.96 564.6 1442.95 566.459C1439.95 568.318 1436.19 569.945 1431.68 571.34C1427.18 572.734 1422.44 573.431 1417.47 573.431C1398.4 573.431 1384.41 566.866 1375.51 553.735C1366.62 540.604 1362.17 522.36 1362.17 499.003C1362.17 484.361 1364.25 471.347 1368.41 459.959C1372.57 448.455 1379.1 439.216 1388 432.244C1396.9 425.272 1407.64 421.786 1420.24 421.786C1427.76 421.786 1434.46 422.599 1440.35 424.226C1446.25 425.853 1451.33 427.828 1455.61 430.153V377.338L1436.54 370.889V351.715L1497.91 343H1511.43V571.34H1467.22ZM1442.78 539.267C1444.86 539.267 1447 538.919 1449.19 538.222C1451.39 537.408 1453.53 536.304 1455.61 534.91V447.234C1452.03 446.421 1448.73 446.014 1445.73 446.014C1430.36 446.13 1422.61 458.041 1422.5 481.747V506.149C1422.5 517.073 1424.4 525.323 1428.22 530.901C1432.03 536.479 1436.89 539.267 1442.78 539.267Z" fill="white"/>
<path d="M1617.81 574.826C1598.86 574.826 1581.29 569.655 1565.11 559.313V530.727C1573.2 536.885 1582.33 539.965 1592.5 539.965C1599.67 539.965 1605.68 539.151 1610.53 537.524C1615.39 535.781 1618.97 533.399 1621.28 530.378C1623.59 527.357 1625.15 524.335 1625.96 521.314C1626.89 518.293 1627.35 514.807 1627.35 510.856C1627.35 490.753 1615.5 480.701 1591.81 480.701H1587.3V456.821H1589.55C1602.27 456.821 1611.74 454.962 1617.99 451.243C1624.23 447.409 1627.35 440.146 1627.35 429.455C1627.35 418.997 1624.17 411.386 1617.81 406.621C1611.46 401.741 1603.02 399.301 1592.5 399.301C1582.33 399.301 1573.2 402.38 1565.11 408.539V379.953C1581.52 369.378 1599.09 364.091 1617.81 364.091C1630.53 364.091 1641.51 365.543 1650.75 368.449C1660.11 371.354 1667.51 375.479 1672.94 380.824C1678.49 386.17 1682.54 392.27 1685.08 399.126C1687.74 405.982 1689.07 413.71 1689.07 422.309C1689.07 448.106 1675.31 462.167 1647.8 464.491C1662.6 465.653 1674.33 470.94 1683 480.352C1691.67 489.649 1696 503.012 1696 520.443C1696 535.781 1689.18 548.68 1675.54 559.138C1661.9 569.597 1642.66 574.826 1617.81 574.826Z" fill="white"/>
<circle cx="1731" cy="545" r="25" fill="url(#paint11_linear_263_19)"/>
<defs>
<linearGradient id="paint0_linear_263_19" x1="217.499" y1="244" x2="572.999" y2="395.5" gradientUnits="userSpaceOnUse">
<stop stop-color="#B516FF"/>
<stop offset="1" stop-color="#882BFF"/>
</linearGradient>
<linearGradient id="paint1_linear_263_19" x1="238.999" y1="367" x2="531.999" y2="566.5" gradientUnits="userSpaceOnUse">
<stop stop-color="#B822FF"/>
<stop offset="1" stop-color="#5900EB"/>
</linearGradient>
<linearGradient id="paint2_linear_263_19" x1="234" y1="282" x2="255" y2="328.5" gradientUnits="userSpaceOnUse">
<stop stop-color="#CC00FF"/>
<stop offset="1" stop-color="#B10AEA"/>
</linearGradient>
<linearGradient id="paint3_linear_263_19" x1="344" y1="288.5" x2="381" y2="333.5" gradientUnits="userSpaceOnUse">
<stop stop-color="#CC00FF"/>
<stop offset="1" stop-color="#792FFF"/>
</linearGradient>
<linearGradient id="paint4_linear_263_19" x1="159.717" y1="114.512" x2="181.502" y2="160" gradientUnits="userSpaceOnUse">
<stop stop-color="#C703FC"/>
<stop offset="1" stop-color="#7233FF"/>
</linearGradient>
<linearGradient id="paint5_linear_263_19" x1="116.999" y1="82.9995" x2="150.499" y2="130.5" gradientUnits="userSpaceOnUse">
<stop stop-color="#CF35F9"/>
<stop offset="1" stop-color="#822BFF"/>
</linearGradient>
<linearGradient id="paint6_linear_263_19" x1="68.5" y1="32.9995" x2="125.5" y2="108.5" gradientUnits="userSpaceOnUse">
<stop stop-color="#DD60FF"/>
<stop offset="1" stop-color="#BE20FA"/>
</linearGradient>
<linearGradient id="paint7_linear_263_19" x1="141.999" y1="287" x2="107.999" y2="317.5" gradientUnits="userSpaceOnUse">
<stop stop-color="#A30DFF"/>
<stop offset="1" stop-color="#7C33B6" stop-opacity="0.03125"/>
</linearGradient>
<linearGradient id="paint8_linear_263_19" x1="547.002" y1="252" x2="581.002" y2="258" gradientUnits="userSpaceOnUse">
<stop stop-color="#461BC0"/>
<stop offset="1" stop-color="#9024F5"/>
</linearGradient>
<linearGradient id="paint9_linear_263_19" x1="530.498" y1="285" x2="189.998" y2="180" gradientUnits="userSpaceOnUse">
<stop stop-color="#6A36FF"/>
<stop offset="1" stop-color="#CC00FF"/>
</linearGradient>
<linearGradient id="paint10_linear_263_19" x1="359.998" y1="404" x2="368.998" y2="469" gradientUnits="userSpaceOnUse">
<stop stop-color="#880EB5"/>
<stop offset="1" stop-color="#AA0BE5" stop-opacity="0"/>
</linearGradient>
<linearGradient id="paint11_linear_263_19" x1="1718.5" y1="535" x2="1741.5" y2="565" gradientUnits="userSpaceOnUse">
<stop stop-color="#C801FC"/>
<stop offset="1" stop-color="#8529FF"/>
</linearGradient>
<clipPath id="clip0_263_19">
<rect width="694" height="575" fill="white"/>
</clipPath>
</defs>
</svg>
