<svg width="214" height="65" viewBox="0 0 214 65" fill="none" xmlns="http://www.w3.org/2000/svg">
<mask id="mask0_1_2443" style="mask-type:alpha" maskUnits="userSpaceOnUse" x="0" y="1" width="52" height="46">
<path d="M14.7543 19.3457L14.3836 20.561C13.9388 22.0423 12.6044 23.0677 11.0475 23.0677C8.7123 23.0677 7.04427 20.7509 7.71148 18.4721L8.08216 17.2567C8.52697 15.7755 9.86139 14.75 11.4182 14.75C13.7535 14.75 15.4215 17.0668 14.7543 19.3457Z" fill="black"/>
<path d="M51.6357 18.9279C51.6357 28.5749 43.9999 36.3989 34.5848 36.3989H21.6483L19.6837 45.1345C19.4984 46.008 18.7199 46.6157 17.8674 46.6157H16.9778C14.0124 46.6157 11.7884 43.7672 12.4556 40.8047L13.4564 36.3989L14.7908 30.398C15.0874 28.9927 16.3106 28.0052 17.6821 28.0052H29.5436C30.6186 28.0052 31.5823 27.3216 31.9159 26.2961C31.9901 26.0302 32.0271 25.7644 32.0271 25.5365C32.0271 24.2072 30.9892 23.0677 29.6177 23.0677H21.5C19.5354 23.0677 17.9415 21.6245 17.5709 19.8394C17.4597 19.2697 17.4226 18.662 17.5709 18.0543V18.0163V17.9404C18.0157 16.0413 19.6466 14.712 21.5371 14.712H32.5461C33.584 14.712 34.5848 14.0663 34.9184 13.0409C34.9925 12.775 35.0666 12.5091 35.0666 12.2053C35.0666 10.876 34.0288 9.73656 32.6573 9.73656H4.07835C1.33537 9.81252 -0.6292 7.07792 0.186282 4.41927C0.705224 2.63419 2.29912 1.45679 4.07835 1.45679H34.5848C43.9999 1.45679 51.6357 9.28079 51.6357 18.9279Z" fill="black"/>
</mask>
<g mask="url(#mask0_1_2443)">
<path d="M-9.18164 61.6689L-9.18164 0.202255L56.9284 0.202252L56.9284 61.6689L-9.18164 61.6689Z" fill="url(#paint0_radial_1_2443)"/>
</g>
<path d="M75.9424 28.4547V46.6157H68.8477V4.26453C68.8477 2.27932 70.4403 0.661732 72.395 0.661732C74.3497 0.661732 75.9424 2.27932 75.9424 4.26453V4.85274C78.1142 1.91169 81.734 0 86.0053 0C93.8239 0 101.281 5.95563 101.281 16.3964C101.281 26.7636 93.5344 32.7192 86.0777 32.7192C81.8064 32.7927 78.1142 31.2487 75.9424 28.4547ZM94.2583 16.3228C94.2583 10.8819 90.2042 6.61737 84.9194 6.61737C79.4897 6.61737 75.5804 11.0289 75.7252 16.5434C75.87 21.9108 80.2137 26.3959 85.4985 26.1018C90.4214 25.8077 94.2583 21.6167 94.2583 16.3228Z" fill="white"/>
<path d="M104.25 3.9705V32.1311H111.489V3.9705C111.489 1.98529 109.896 0.294189 107.869 0.294189C105.842 0.294189 104.25 1.98529 104.25 3.9705Z" fill="white"/>
<path d="M114.601 16.4699C114.601 7.2791 121.623 0 130.673 0C139.867 0 146.6 6.91147 146.6 16.1758V18.8963H121.406C122.42 23.3814 125.822 26.3224 130.962 26.3224C135.016 26.3224 138.057 24.1902 139.577 20.8079L145.441 24.2637C142.763 29.4105 137.985 32.7927 130.962 32.7927C121.189 32.7927 114.601 25.5871 114.601 16.4699ZM121.768 12.8671H139.36C138.274 8.60258 135.089 6.39678 130.673 6.39678C126.401 6.39678 123.071 9.04373 121.768 12.8671Z" fill="white"/>
<path d="M149.786 0.661688H156.88V4.55858C158.98 1.83811 162.093 0.0734863 166.147 0.0734863C173.966 0.0734863 178.454 4.99974 178.454 13.5288V28.5282C178.454 30.5869 176.861 32.2045 174.834 32.2045C172.807 32.2045 171.215 30.5869 171.215 28.5282V14.2641C171.215 9.33779 168.898 6.32322 164.192 6.32322C160.138 6.32322 156.953 9.33779 156.953 14.8523V32.1309H149.786V0.661688Z" fill="white"/>
<path d="M181.567 16.4698C181.567 6.02911 189.096 0.0734863 196.915 0.0734863C200.969 0.0734863 204.589 1.76459 206.905 4.48506V4.338C206.905 2.35279 208.498 0.735218 210.453 0.735218C212.407 0.735218 214 2.35279 214 4.338V32.2045H206.833V28.087C204.589 31.028 200.824 32.7927 196.77 32.7927C189.386 32.7927 181.567 26.7635 181.567 16.4698ZM207.267 16.9845C207.629 11.323 203.575 6.69085 198.001 6.69085C192.716 6.69085 188.589 10.9554 188.589 16.3963C188.589 21.7637 192.571 26.0283 197.711 26.1753C202.851 26.2488 206.978 22.1314 207.267 16.9845Z" fill="white"/>
<path d="M136.776 42.9305V44.2528H132.646V47.1676H135.866V48.49H132.646V52.8125H131.05V42.9305H136.776Z" fill="white"/>
<path d="M143.851 42.9305V52.8125H142.255V42.9305H143.851Z" fill="white"/>
<path d="M157.94 52.8125H156.344L151.542 45.433V52.8125H149.946V42.9162H151.542L156.344 50.2816V42.9162H157.94V52.8125Z" fill="white"/>
<path d="M169.902 50.7934H165.828L165.128 52.8125H163.462L166.948 42.9162H168.796L172.282 52.8125H170.602L169.902 50.7934ZM169.454 49.4711L167.872 44.8784L166.276 49.4711H169.454Z" fill="white"/>
<path d="M185.792 52.8125H184.196L179.394 45.433V52.8125H177.798V42.9162H179.394L184.196 50.2816V42.9162H185.792V52.8125Z" fill="white"/>
<path d="M191.356 47.8501C191.356 46.8833 191.575 46.0159 192.014 45.2481C192.462 44.4803 193.064 43.8831 193.82 43.4566C194.585 43.0205 195.42 42.8025 196.326 42.8025C197.362 42.8025 198.281 43.0632 199.084 43.5845C199.896 44.0964 200.484 44.8263 200.848 45.7742H198.93C198.678 45.2529 198.328 44.8642 197.88 44.6083C197.432 44.3523 196.914 44.2244 196.326 44.2244C195.682 44.2244 195.108 44.3713 194.604 44.6651C194.1 44.959 193.703 45.3808 193.414 45.9306C193.134 46.4804 192.994 47.1203 192.994 47.8501C192.994 48.58 193.134 49.2199 193.414 49.7697C193.703 50.3195 194.1 50.746 194.604 51.0494C195.108 51.3432 195.682 51.4901 196.326 51.4901C196.914 51.4901 197.432 51.3622 197.88 51.1062C198.328 50.8503 198.678 50.4617 198.93 49.9403H200.848C200.484 50.8882 199.896 51.6181 199.084 52.13C198.281 52.6419 197.362 52.8978 196.326 52.8978C195.411 52.8978 194.576 52.6845 193.82 52.258C193.064 51.8219 192.462 51.22 192.014 50.4522C191.575 49.6844 191.356 48.817 191.356 47.8501Z" fill="white"/>
<path d="M208.312 44.2386V47.1392H211.672V48.4616H208.312V51.4901H212.092V52.8125H206.716V42.9162H212.092V44.2386H208.312Z" fill="white"/>
<defs>
<radialGradient id="paint0_radial_1_2443" cx="0" cy="0" r="1" gradientUnits="userSpaceOnUse" gradientTransform="translate(2.18314 34.2416) rotate(-36.0946) scale(46.8273 42.8204)">
<stop stop-color="#85EAFF"/>
<stop offset="0.706211" stop-color="#DADADA"/>
<stop offset="1" stop-color="#FFCB80"/>
</radialGradient>
</defs>
</svg>
